<svg xmlns="http://www.w3.org/2000/svg" xmlns:xlink="http://www.w3.org/1999/xlink" width="1500" zoomAndPan="magnify" viewBox="0 0 1125 262.499992" height="350" preserveAspectRatio="xMidYMid meet" version="1.0"><defs><g/><clipPath id="4681fd2d40"><path d="M 68.867188 33.621094 L 263.496094 33.621094 L 263.496094 228.25 L 68.867188 228.25 Z M 68.867188 33.621094 " clip-rule="nonzero"/></clipPath></defs><g clip-path="url(#4681fd2d40)"><path fill="#f3ce18" d="M 130.25 166.984375 L 130.25 197.675781 L 160.941406 197.675781 L 160.941406 166.984375 L 204.640625 166.984375 C 212.511719 166.984375 219.363281 163.789062 224.546875 158.648438 C 229.6875 153.507812 232.878906 146.613281 232.878906 138.746094 L 232.878906 92.550781 C 232.878906 84.683594 229.6875 77.828125 224.546875 72.648438 C 219.402344 67.507812 212.511719 64.3125 204.640625 64.3125 L 158.488281 64.3125 C 150.621094 64.3125 143.765625 67.507812 138.585938 72.648438 C 133.402344 77.789062 130.25 84.683594 130.25 92.550781 L 130.25 136.253906 L 68.867188 136.253906 L 68.867188 166.945312 L 130.25 166.945312 Z M 99.558594 136.292969 L 99.558594 92.550781 C 99.558594 76.347656 106.179688 61.625 116.734375 50.796875 C 127.5625 40.242188 142.285156 33.621094 158.488281 33.621094 L 204.640625 33.621094 C 220.84375 33.621094 235.566406 40.242188 246.394531 50.796875 C 256.988281 61.625 263.613281 76.347656 263.613281 92.550781 L 263.613281 138.707031 C 263.613281 154.910156 256.988281 169.632812 246.433594 180.460938 C 235.644531 191.015625 220.882812 197.636719 204.679688 197.636719 L 160.941406 197.636719 L 160.941406 228.367188 L 130.25 228.367188 L 130.25 197.675781 L 99.558594 197.675781 Z M 190.933594 95.003906 L 172.277344 95.003906 C 169.316406 95.003906 166.394531 96.253906 164.40625 98.433594 C 162.1875 100.378906 160.980469 103.339844 160.980469 106.300781 L 160.980469 136.253906 L 190.933594 136.253906 C 193.890625 136.253906 196.8125 135.007812 198.800781 132.824219 C 201.019531 130.878906 202.226562 127.917969 202.226562 124.957031 L 202.226562 106.300781 C 202.226562 103.339844 200.980469 100.417969 198.800781 98.433594 C 196.8125 96.253906 193.851562 95.003906 190.933594 95.003906 Z M 190.933594 95.003906 " fill-opacity="1" fill-rule="nonzero"/></g><g fill="#f3ce18" fill-opacity="1"><g transform="translate(294.67067, 191.485295)"><g><path d="M 24.53125 1.421875 C 19.914062 1.421875 16.347656 0.132812 13.828125 -2.4375 C 11.316406 -5.007812 10.0625 -8.597656 10.0625 -13.203125 L 10.0625 -96.234375 C 10.0625 -100.941406 11.34375 -104.550781 13.90625 -107.0625 C 16.476562 -109.582031 20.070312 -110.84375 24.6875 -110.84375 L 63.359375 -110.84375 C 75.941406 -110.84375 85.664062 -107.617188 92.53125 -101.171875 C 99.394531 -94.734375 102.828125 -85.851562 102.828125 -74.53125 C 102.828125 -63.207031 99.394531 -54.320312 92.53125 -47.875 C 85.664062 -41.425781 75.941406 -38.203125 63.359375 -38.203125 L 39 -38.203125 L 39 -13.203125 C 39 -8.597656 37.789062 -5.007812 35.375 -2.4375 C 32.96875 0.132812 29.351562 1.421875 24.53125 1.421875 Z M 39 -60.375 L 58.328125 -60.375 C 63.785156 -60.375 67.976562 -61.550781 70.90625 -63.90625 C 73.84375 -66.269531 75.3125 -69.8125 75.3125 -74.53125 C 75.3125 -79.351562 73.84375 -82.914062 70.90625 -85.21875 C 67.976562 -87.53125 63.785156 -88.6875 58.328125 -88.6875 L 39 -88.6875 Z M 39 -60.375 "/></g></g></g><g fill="#f3ce18" fill-opacity="1"><g transform="translate(406.927872, 191.485295)"><g><path d="M 22.015625 1.421875 C 17.609375 1.421875 14.195312 0.109375 11.78125 -2.515625 C 9.375 -5.140625 8.171875 -8.914062 8.171875 -13.84375 L 8.171875 -63.515625 C 8.171875 -68.441406 9.375 -72.21875 11.78125 -74.84375 C 14.195312 -77.46875 17.609375 -78.78125 22.015625 -78.78125 C 26.523438 -78.78125 30.007812 -77.46875 32.46875 -74.84375 C 34.925781 -72.21875 36.15625 -68.441406 36.15625 -63.515625 L 36.15625 -13.84375 C 36.15625 -8.914062 34.953125 -5.140625 32.546875 -2.515625 C 30.140625 0.109375 26.628906 1.421875 22.015625 1.421875 Z M 22.015625 -89.9375 C 17.085938 -89.9375 13.285156 -91.085938 10.609375 -93.390625 C 7.941406 -95.703125 6.609375 -99.054688 6.609375 -103.453125 C 6.609375 -107.753906 7.941406 -111.054688 10.609375 -113.359375 C 13.285156 -115.671875 17.085938 -116.828125 22.015625 -116.828125 C 27.148438 -116.828125 31.023438 -115.671875 33.640625 -113.359375 C 36.265625 -111.054688 37.578125 -107.753906 37.578125 -103.453125 C 37.578125 -99.054688 36.265625 -95.703125 33.640625 -93.390625 C 31.023438 -91.085938 27.148438 -89.9375 22.015625 -89.9375 Z M 22.015625 -89.9375 "/></g></g></g><g fill="#f3ce18" fill-opacity="1"><g transform="translate(457.08257, 191.485295)"><g><path d="M 22.015625 1.421875 C 17.609375 1.421875 14.195312 0.21875 11.78125 -2.1875 C 9.375 -4.601562 8.171875 -8.117188 8.171875 -12.734375 L 8.171875 -64.78125 C 8.171875 -69.289062 9.347656 -72.75 11.703125 -75.15625 C 14.066406 -77.570312 17.453125 -78.78125 21.859375 -78.78125 C 26.253906 -78.78125 29.601562 -77.570312 31.90625 -75.15625 C 34.21875 -72.75 35.375 -69.289062 35.375 -64.78125 L 35.375 -57.390625 L 33.640625 -63.84375 C 36.160156 -68.769531 39.753906 -72.539062 44.421875 -75.15625 C 49.085938 -77.78125 54.40625 -79.09375 60.375 -79.09375 C 66.5625 -79.09375 71.644531 -77.910156 75.625 -75.546875 C 79.613281 -73.191406 82.601562 -69.523438 84.59375 -64.546875 C 86.582031 -59.566406 87.578125 -53.300781 87.578125 -45.75 L 87.578125 -12.734375 C 87.578125 -8.117188 86.367188 -4.601562 83.953125 -2.1875 C 81.546875 0.21875 78.085938 1.421875 73.578125 1.421875 C 69.078125 1.421875 65.617188 0.21875 63.203125 -2.1875 C 60.796875 -4.601562 59.59375 -8.117188 59.59375 -12.734375 L 59.59375 -44.65625 C 59.59375 -49.375 58.78125 -52.726562 57.15625 -54.71875 C 55.53125 -56.707031 53.144531 -57.703125 50 -57.703125 C 45.8125 -57.703125 42.457031 -56.363281 39.9375 -53.6875 C 37.414062 -51.019531 36.15625 -47.429688 36.15625 -42.921875 L 36.15625 -12.734375 C 36.15625 -3.296875 31.441406 1.421875 22.015625 1.421875 Z M 22.015625 1.421875 "/></g></g></g><g fill="#f3ce18" fill-opacity="1"><g transform="translate(558.334289, 191.485295)"><g><path d="M 46.546875 30.03125 C 40.773438 30.03125 35.375 29.632812 30.34375 28.84375 C 25.3125 28.0625 20.960938 26.9375 17.296875 25.46875 C 14.253906 24.425781 12.101562 22.90625 10.84375 20.90625 C 9.59375 18.914062 9.019531 16.820312 9.125 14.625 C 9.226562 12.425781 9.828125 10.429688 10.921875 8.640625 C 12.023438 6.859375 13.519531 5.570312 15.40625 4.78125 C 17.289062 4 19.390625 4.03125 21.703125 4.875 C 26.304688 6.757812 30.492188 7.988281 34.265625 8.5625 C 38.046875 9.144531 41.25 9.4375 43.875 9.4375 C 50.257812 9.4375 55.050781 8.097656 58.25 5.421875 C 61.445312 2.753906 63.046875 -1.410156 63.046875 -7.078125 L 63.046875 -16.984375 L 64.3125 -16.984375 C 62.738281 -12.578125 59.539062 -8.984375 54.71875 -6.203125 C 49.894531 -3.429688 44.65625 -2.046875 39 -2.046875 C 32.070312 -2.046875 26.039062 -3.644531 20.90625 -6.84375 C 15.769531 -10.039062 11.757812 -14.519531 8.875 -20.28125 C 6 -26.050781 4.5625 -32.8125 4.5625 -40.5625 C 4.5625 -46.4375 5.398438 -51.726562 7.078125 -56.4375 C 8.753906 -61.15625 11.082031 -65.191406 14.0625 -68.546875 C 17.050781 -71.898438 20.671875 -74.492188 24.921875 -76.328125 C 29.171875 -78.171875 33.863281 -79.09375 39 -79.09375 C 44.863281 -79.09375 50.128906 -77.726562 54.796875 -75 C 59.460938 -72.269531 62.582031 -68.707031 64.15625 -64.3125 L 62.578125 -57.859375 L 62.578125 -64.78125 C 62.578125 -69.289062 63.804688 -72.75 66.265625 -75.15625 C 68.734375 -77.570312 72.171875 -78.78125 76.578125 -78.78125 C 80.972656 -78.78125 84.347656 -77.570312 86.703125 -75.15625 C 89.066406 -72.75 90.25 -69.289062 90.25 -64.78125 L 90.25 -10.375 C 90.25 3.039062 86.472656 13.128906 78.921875 19.890625 C 71.378906 26.648438 60.585938 30.03125 46.546875 30.03125 Z M 47.640625 -22.640625 C 50.785156 -22.640625 53.457031 -23.347656 55.65625 -24.765625 C 57.863281 -26.179688 59.59375 -28.222656 60.84375 -30.890625 C 62.101562 -33.566406 62.734375 -36.789062 62.734375 -40.5625 C 62.734375 -46.226562 61.367188 -50.628906 58.640625 -53.765625 C 55.921875 -56.910156 52.253906 -58.484375 47.640625 -58.484375 C 44.703125 -58.484375 42.082031 -57.773438 39.78125 -56.359375 C 37.476562 -54.953125 35.722656 -52.910156 34.515625 -50.234375 C 33.304688 -47.566406 32.703125 -44.34375 32.703125 -40.5625 C 32.703125 -34.90625 34.0625 -30.503906 36.78125 -27.359375 C 39.507812 -24.210938 43.128906 -22.640625 47.640625 -22.640625 Z M 47.640625 -22.640625 "/></g></g></g><g fill="#f3ce18" fill-opacity="1"><g transform="translate(662.730443, 191.485295)"><g><path d="M 22.015625 29.71875 C 17.609375 29.71875 14.195312 28.507812 11.78125 26.09375 C 9.375 23.6875 8.171875 20.175781 8.171875 15.5625 L 8.171875 -64.78125 C 8.171875 -69.289062 9.347656 -72.75 11.703125 -75.15625 C 14.066406 -77.570312 17.453125 -78.78125 21.859375 -78.78125 C 26.359375 -78.78125 29.785156 -77.570312 32.140625 -75.15625 C 34.503906 -72.75 35.6875 -69.289062 35.6875 -64.78125 L 35.6875 -55.65625 L 33.96875 -63.359375 C 35.425781 -68.078125 38.488281 -71.878906 43.15625 -74.765625 C 47.820312 -77.648438 53.144531 -79.09375 59.125 -79.09375 C 65.832031 -79.09375 71.726562 -77.46875 76.8125 -74.21875 C 81.894531 -70.96875 85.847656 -66.351562 88.671875 -60.375 C 91.503906 -54.40625 92.921875 -47.171875 92.921875 -38.671875 C 92.921875 -30.398438 91.503906 -23.222656 88.671875 -17.140625 C 85.847656 -11.054688 81.894531 -6.390625 76.8125 -3.140625 C 71.726562 0.109375 65.832031 1.734375 59.125 1.734375 C 53.351562 1.734375 48.160156 0.367188 43.546875 -2.359375 C 38.941406 -5.085938 35.851562 -8.648438 34.28125 -13.046875 L 36.15625 -13.046875 L 36.15625 15.5625 C 36.15625 20.175781 34.925781 23.6875 32.46875 26.09375 C 30.007812 28.507812 26.523438 29.71875 22.015625 29.71875 Z M 50.3125 -18.875 C 53.144531 -18.875 55.632812 -19.578125 57.78125 -20.984375 C 59.925781 -22.398438 61.628906 -24.550781 62.890625 -27.4375 C 64.148438 -30.320312 64.78125 -34.066406 64.78125 -38.671875 C 64.78125 -45.703125 63.414062 -50.757812 60.6875 -53.84375 C 57.96875 -56.9375 54.507812 -58.484375 50.3125 -58.484375 C 47.476562 -58.484375 44.960938 -57.800781 42.765625 -56.4375 C 40.566406 -55.082031 38.835938 -52.960938 37.578125 -50.078125 C 36.316406 -47.191406 35.6875 -43.390625 35.6875 -38.671875 C 35.6875 -31.753906 37.050781 -26.722656 39.78125 -23.578125 C 42.507812 -20.441406 46.019531 -18.875 50.3125 -18.875 Z M 50.3125 -18.875 "/></g></g></g><g fill="#f3ce18" fill-opacity="1"><g transform="translate(766.18325, 191.485295)"><g><path d="M 37.578125 1.734375 C 27.515625 1.734375 20.097656 -0.960938 15.328125 -6.359375 C 10.554688 -11.765625 8.171875 -19.914062 8.171875 -30.8125 L 8.171875 -98.109375 C 8.171875 -102.722656 9.375 -106.234375 11.78125 -108.640625 C 14.195312 -111.054688 17.609375 -112.265625 22.015625 -112.265625 C 26.523438 -112.265625 30.007812 -111.054688 32.46875 -108.640625 C 34.925781 -106.234375 36.15625 -102.722656 36.15625 -98.109375 L 36.15625 -31.765625 C 36.15625 -27.878906 36.914062 -25.046875 38.4375 -23.265625 C 39.957031 -21.484375 41.925781 -20.59375 44.34375 -20.59375 C 45.070312 -20.59375 45.828125 -20.671875 46.609375 -20.828125 C 47.398438 -20.984375 48.269531 -21.117188 49.21875 -21.234375 C 51 -21.234375 52.332031 -20.550781 53.21875 -19.1875 C 54.113281 -17.820312 54.5625 -15.039062 54.5625 -10.84375 C 54.5625 -7.175781 53.828125 -4.425781 52.359375 -2.59375 C 50.890625 -0.757812 48.632812 0.414062 45.59375 0.9375 C 44.757812 1.039062 43.554688 1.195312 41.984375 1.40625 C 40.410156 1.625 38.941406 1.734375 37.578125 1.734375 Z M 37.578125 1.734375 "/></g></g></g><g fill="#f3ce18" fill-opacity="1"><g transform="translate(826.871819, 191.485295)"><g><path d="M 47.328125 1.734375 C 38.734375 1.734375 31.238281 0.109375 24.84375 -3.140625 C 18.445312 -6.390625 13.46875 -11.054688 9.90625 -17.140625 C 6.34375 -23.222656 4.5625 -30.398438 4.5625 -38.671875 C 4.5625 -44.960938 5.554688 -50.597656 7.546875 -55.578125 C 9.535156 -60.554688 12.414062 -64.800781 16.1875 -68.3125 C 19.96875 -71.820312 24.476562 -74.492188 29.71875 -76.328125 C 34.957031 -78.171875 40.828125 -79.09375 47.328125 -79.09375 C 55.921875 -79.09375 63.414062 -77.46875 69.8125 -74.21875 C 76.207031 -70.96875 81.160156 -66.328125 84.671875 -60.296875 C 88.179688 -54.273438 89.9375 -47.066406 89.9375 -38.671875 C 89.9375 -32.492188 88.941406 -26.890625 86.953125 -21.859375 C 84.960938 -16.828125 82.101562 -12.554688 78.375 -9.046875 C 74.65625 -5.535156 70.148438 -2.859375 64.859375 -1.015625 C 59.566406 0.816406 53.722656 1.734375 47.328125 1.734375 Z M 47.328125 -18.875 C 50.160156 -18.875 52.675781 -19.578125 54.875 -20.984375 C 57.070312 -22.398438 58.773438 -24.550781 59.984375 -27.4375 C 61.191406 -30.320312 61.796875 -34.066406 61.796875 -38.671875 C 61.796875 -45.703125 60.429688 -50.757812 57.703125 -53.84375 C 54.972656 -56.9375 51.515625 -58.484375 47.328125 -58.484375 C 44.492188 -58.484375 41.976562 -57.800781 39.78125 -56.4375 C 37.582031 -55.082031 35.851562 -52.960938 34.59375 -50.078125 C 33.332031 -47.191406 32.703125 -43.390625 32.703125 -38.671875 C 32.703125 -31.753906 34.0625 -26.722656 36.78125 -23.578125 C 39.507812 -20.441406 43.023438 -18.875 47.328125 -18.875 Z M 47.328125 -18.875 "/></g></g></g><g fill="#f3ce18" fill-opacity="1"><g transform="translate(927.494625, 191.485295)"><g><path d="M 22.015625 29.71875 C 17.609375 29.71875 14.195312 28.507812 11.78125 26.09375 C 9.375 23.6875 8.171875 20.175781 8.171875 15.5625 L 8.171875 -64.78125 C 8.171875 -69.289062 9.347656 -72.75 11.703125 -75.15625 C 14.066406 -77.570312 17.453125 -78.78125 21.859375 -78.78125 C 26.359375 -78.78125 29.785156 -77.570312 32.140625 -75.15625 C 34.503906 -72.75 35.6875 -69.289062 35.6875 -64.78125 L 35.6875 -55.65625 L 33.96875 -63.359375 C 35.425781 -68.078125 38.488281 -71.878906 43.15625 -74.765625 C 47.820312 -77.648438 53.144531 -79.09375 59.125 -79.09375 C 65.832031 -79.09375 71.726562 -77.46875 76.8125 -74.21875 C 81.894531 -70.96875 85.847656 -66.351562 88.671875 -60.375 C 91.503906 -54.40625 92.921875 -47.171875 92.921875 -38.671875 C 92.921875 -30.398438 91.503906 -23.222656 88.671875 -17.140625 C 85.847656 -11.054688 81.894531 -6.390625 76.8125 -3.140625 C 71.726562 0.109375 65.832031 1.734375 59.125 1.734375 C 53.351562 1.734375 48.160156 0.367188 43.546875 -2.359375 C 38.941406 -5.085938 35.851562 -8.648438 34.28125 -13.046875 L 36.15625 -13.046875 L 36.15625 15.5625 C 36.15625 20.175781 34.925781 23.6875 32.46875 26.09375 C 30.007812 28.507812 26.523438 29.71875 22.015625 29.71875 Z M 50.3125 -18.875 C 53.144531 -18.875 55.632812 -19.578125 57.78125 -20.984375 C 59.925781 -22.398438 61.628906 -24.550781 62.890625 -27.4375 C 64.148438 -30.320312 64.78125 -34.066406 64.78125 -38.671875 C 64.78125 -45.703125 63.414062 -50.757812 60.6875 -53.84375 C 57.96875 -56.9375 54.507812 -58.484375 50.3125 -58.484375 C 47.476562 -58.484375 44.960938 -57.800781 42.765625 -56.4375 C 40.566406 -55.082031 38.835938 -52.960938 37.578125 -50.078125 C 36.316406 -47.191406 35.6875 -43.390625 35.6875 -38.671875 C 35.6875 -31.753906 37.050781 -26.722656 39.78125 -23.578125 C 42.507812 -20.441406 46.019531 -18.875 50.3125 -18.875 Z M 50.3125 -18.875 "/></g></g></g></svg>