<svg xmlns="http://www.w3.org/2000/svg" xmlns:xlink="http://www.w3.org/1999/xlink" width="500" zoomAndPan="magnify" viewBox="0 0 375 374.999991" height="500" preserveAspectRatio="xMidYMid meet" version="1.0"><defs><clipPath id="a6754daa9d"><path d="M 53.308594 53.308594 L 321.808594 53.308594 L 321.808594 321.808594 L 53.308594 321.808594 Z M 53.308594 53.308594 " clip-rule="nonzero"/></clipPath></defs><g clip-path="url(#a6754daa9d)"><path fill="#f3ce18" d="M 137.902344 237.09375 L 137.902344 279.390625 L 180.199219 279.390625 L 180.199219 237.09375 L 240.421875 237.09375 C 251.265625 237.09375 260.714844 232.695312 267.851562 225.609375 C 274.9375 218.523438 279.339844 209.023438 279.339844 198.179688 L 279.339844 134.519531 C 279.339844 123.675781 274.9375 114.230469 267.851562 107.089844 C 260.765625 100.003906 251.265625 95.605469 240.421875 95.605469 L 176.816406 95.605469 C 165.972656 95.605469 156.527344 100.003906 149.386719 107.089844 C 142.25 114.175781 137.902344 123.675781 137.902344 134.519531 L 137.902344 194.746094 L 53.308594 194.746094 L 53.308594 237.042969 L 137.902344 237.042969 Z M 95.605469 194.796875 L 95.605469 134.519531 C 95.605469 112.191406 104.730469 91.898438 119.273438 76.976562 C 134.195312 62.433594 154.488281 53.308594 176.816406 53.308594 L 240.421875 53.308594 C 262.753906 53.308594 283.042969 62.433594 297.964844 76.976562 C 312.566406 91.898438 321.691406 112.191406 321.691406 134.519531 L 321.691406 198.125 C 321.691406 220.457031 312.566406 240.746094 298.019531 255.667969 C 283.148438 270.214844 262.804688 279.339844 240.476562 279.339844 L 180.199219 279.339844 L 180.199219 321.691406 L 137.902344 321.691406 L 137.902344 279.390625 L 95.605469 279.390625 Z M 221.527344 137.902344 L 195.816406 137.902344 C 191.738281 137.902344 187.710938 139.617188 184.976562 142.625 C 181.914062 145.308594 180.25 149.386719 180.25 153.46875 L 180.25 194.746094 L 221.527344 194.746094 C 225.609375 194.746094 229.632812 193.027344 232.371094 190.019531 C 235.429688 187.335938 237.09375 183.257812 237.09375 179.179688 L 237.09375 153.46875 C 237.09375 149.386719 235.378906 145.363281 232.371094 142.625 C 229.632812 139.617188 225.554688 137.902344 221.527344 137.902344 Z M 221.527344 137.902344 " fill-opacity="1" fill-rule="nonzero"/></g></svg>