<svg xmlns="http://www.w3.org/2000/svg" xmlns:xlink="http://www.w3.org/1999/xlink" width="500" zoomAndPan="magnify" viewBox="0 0 375 374.999991" height="500" preserveAspectRatio="xMidYMid meet" version="1.0"><defs><clipPath id="f9cf290a6c"><path d="M 15.152344 15.152344 L 360 15.152344 L 360 360 L 15.152344 360 Z M 15.152344 15.152344 " clip-rule="nonzero"/></clipPath></defs><g clip-path="url(#f9cf290a6c)"><path fill="#052349" d="M 123.796875 251.191406 L 123.796875 305.515625 L 178.117188 305.515625 L 178.117188 251.191406 L 255.464844 251.191406 C 269.390625 251.191406 281.523438 245.539062 290.691406 236.441406 C 299.792969 227.339844 305.445312 215.136719 305.445312 201.210938 L 305.445312 119.453125 C 305.445312 105.527344 299.792969 93.394531 290.691406 84.226562 C 281.59375 75.128906 269.390625 69.476562 255.464844 69.476562 L 173.777344 69.476562 C 159.851562 69.476562 147.71875 75.128906 138.550781 84.226562 C 129.378906 93.328125 123.796875 105.527344 123.796875 119.453125 L 123.796875 196.800781 L 15.152344 196.800781 L 15.152344 251.121094 L 123.796875 251.121094 Z M 69.476562 196.871094 L 69.476562 119.453125 C 69.476562 90.777344 81.195312 64.71875 99.875 45.554688 C 119.039062 26.871094 145.097656 15.152344 173.777344 15.152344 L 255.464844 15.152344 C 284.144531 15.152344 310.203125 26.871094 329.367188 45.554688 C 348.117188 64.71875 359.835938 90.777344 359.835938 119.453125 L 359.835938 201.144531 C 359.835938 229.820312 348.117188 255.878906 329.433594 275.042969 C 310.339844 293.726562 284.210938 305.445312 255.535156 305.445312 L 178.117188 305.445312 L 178.117188 359.835938 L 123.796875 359.835938 L 123.796875 305.515625 L 69.476562 305.515625 Z M 231.199219 123.796875 L 198.179688 123.796875 C 192.941406 123.796875 187.769531 126.003906 184.253906 129.863281 C 180.324219 133.308594 178.1875 138.550781 178.1875 143.789062 L 178.1875 196.800781 L 231.199219 196.800781 C 236.441406 196.800781 241.609375 194.59375 245.125 190.734375 C 249.054688 187.289062 251.191406 182.046875 251.191406 176.808594 L 251.191406 143.789062 C 251.191406 138.550781 248.984375 133.378906 245.125 129.863281 C 241.609375 126.003906 236.371094 123.796875 231.199219 123.796875 Z M 231.199219 123.796875 " fill-opacity="1" fill-rule="nonzero"/></g></svg>